# xmcd CD database file
#
# Track frame offsets:
#	150
#	16056
#	29174
#	43160
#	56798
#	70733
#	86102
#	100947
#	115293
#	127895
#	142434
#
# Disc length: 2055 seconds
#
# Revision: 0
# Processed by: cddbd v1.5.2PL0 Copyright (c) Steve Scherf et al.
# Submitted via: CDex 1.51
#
DISCID=a308050b
DTITLE=Jimmy Melton - Jimmy Melton
DYEAR=2007
DGENRE=Country
TTITLE0=Even When We Do
TTITLE1=God's Country
TTITLE2=Nobody's Perfect
TTITLE3=She's Been Around Me Too Long
TTITLE4=Something To Do With My Hands
TTITLE5=We All Go Home
TTITLE6=I've Got One Of Those Too
TTITLE7=Second Hand Tequila
TTITLE8=She Sure Does Love Me
TTITLE9=We're All The Same
TTITLE10=When This Old Guitar Was New
EXTD=YEAR: 2007
EXTT0=
EXTT1=
EXTT2=
EXTT3=
EXTT4=
EXTT5=
EXTT6=
EXTT7=
EXTT8=
EXTT9=
EXTT10=
PLAYORDER=
